<svg width="25" height="20" viewBox="0 0 25 20" version="1.1" xmlns="http://www.w3.org/2000/svg" xmlns:xlink="http://www.w3.org/1999/xlink">
<title>arrow-down</title>
<desc>Created using Figma</desc>
<g id="Canvas" transform="translate(-7447 -579)">
<g id="arrow-down">
<g id="Shape">
<use xlink:href="#path0_stroke" transform="matrix(6.12323e-17 -1 1 6.12323e-17 7449 589)" fill="#29245B"/>
</g>
<g id="Shape">
<use xlink:href="#path1_stroke" transform="matrix(6.12323e-17 -1 1 6.12323e-17 7462.12 597)" fill="#29245B"/>
</g>
</g>
</g>
<defs>
<path id="path0_stroke" d="M 1.32288 0C 1.32288 -0.730604 0.730604 -1.32288 0 -1.32288C -0.730604 -1.32288 -1.32288 -0.730604 -1.32288 0L 1.32288 0ZM -1.32288 21C -1.32288 21.7306 -0.730604 22.3229 0 22.3229C 0.730604 22.3229 1.32288 21.7306 1.32288 21L -1.32288 21ZM -1.32288 0L -1.32288 21L 1.32288 21L 1.32288 0L -1.32288 0Z"/>
<path id="path1_stroke" d="M 16.928 0.942751C 17.4487 0.430219 17.4553 -0.407353 16.9428 -0.92802C 16.4302 -1.44869 15.5926 -1.45528 15.072 -0.942751L 16.928 0.942751ZM 8 7.875L 7.07198 8.81775C 7.58686 9.32458 8.41314 9.32458 8.92802 8.81775L 8 7.875ZM 0.92802 -0.942751C 0.407353 -1.45528 -0.430219 -1.44869 -0.942751 -0.92802C -1.45528 -0.407353 -1.44869 0.430219 -0.92802 0.942751L 0.92802 -0.942751ZM 15.072 -0.942751L 7.07198 6.93225L 8.92802 8.81775L 16.928 0.942751L 15.072 -0.942751ZM 8.92802 6.93225L 0.92802 -0.942751L -0.92802 0.942751L 7.07198 8.81775L 8.92802 6.93225Z"/>
</defs>
</svg>
