<svg width="60" height="61" viewBox="0 0 60 61" version="1.1" xmlns="http://www.w3.org/2000/svg" xmlns:xlink="http://www.w3.org/1999/xlink">
<title>noun_997466_cc</title>
<desc>Created using Figma</desc>
<g id="Canvas" transform="translate(-7578 -1644)">
<g id="noun_997466_cc">
<g id="Vector">
<use xlink:href="#path0_fill" transform="translate(7578 1644)"/>
</g>
<g id="Vector">
<use xlink:href="#path1_fill" transform="translate(7604.06 1652.9)"/>
</g>
</g>
</g>
<defs>
<path id="path0_fill" d="M 50.3602 13.8027C 50.3162 13.7616 50.2662 13.7451 50.2175 13.7266C 50.0336 13.4854 49.8503 13.2448 49.6522 13.0139C 48.4973 11.6659 47.1754 10.544 45.7419 9.60302C 45.729 9.50296 45.6992 9.40564 45.6215 9.32478C 42.0918 5.62127 35.3003 -0.790636 29.6535 0.0804138C 26.5397 0.560142 23.2318 1.51206 20.5541 3.21852C 18.3958 4.59397 17.2956 6.89187 15.6194 8.75801C 12.7767 10.4268 10.2992 12.6404 8.37949 15.3275C 6.02842 16.7078 3.47989 18.2786 1.98891 20.4853C -0.0768183 23.5439 -0.20935 26.4148 0.163226 30.0429C 0.443841 32.7684 0.970585 36.9064 2.57381 39.1694C 4.02692 41.2233 6.80805 42.5555 8.83389 44.0468C 9.02931 44.336 9.59527 45.1899 9.70616 45.2674C 11.2864 47.3631 13.1527 49.2402 15.2407 50.8377C 15.3198 50.9439 15.5436 51.1064 15.5612 51.1256C 17.5938 53.3912 20.2526 55.2505 22.6117 57.1619C 25.0223 59.1158 27.6276 60.5275 30.7117 60.9531C 33.313 61.3109 37.3559 59.5448 39.5731 58.2399C 42.0844 56.7617 43.5138 54.4151 45.4281 52.2947C 45.5735 52.133 45.6303 51.9699 45.6262 51.8266C 46.6939 51.0735 47.7062 50.2518 48.6494 49.3752C 49.4629 48.6186 50.1627 47.8182 50.7835 46.9862C 50.8261 46.9499 50.8707 46.9211 50.9113 46.8704C 52.1669 45.3208 54.3828 45.3208 55.9589 44.3059C 57.5284 43.2943 58.448 41.6509 59.2404 39.9835C 60.607 37.1093 59.8274 33.0795 59.2377 30.0895C 58.0003 23.8146 55.0454 18.1696 50.3602 13.8027ZM 49.5711 15.0575C 49.5487 15.0801 49.5264 15.1034 49.5041 15.1343C 48.9686 15.9066 48.4567 16.7249 47.8962 17.5C 47.9394 17.3417 47.9902 17.1868 48.0226 17.0224C 48.2762 15.7339 47.9604 14.4887 47.7224 13.227C 47.6372 12.7774 46.9975 12.6596 47.0976 13.1907C 47.2991 14.2571 47.5445 15.2782 47.4566 16.372C 47.3755 17.376 46.9488 18.2594 46.5046 19.1359C 46.3971 19.2394 46.2909 19.3449 46.178 19.4416C 45.8399 19.7328 45.4687 19.9939 45.0866 20.2427C 45.3537 17.4596 45.5755 14.7066 45.4524 11.9009C 45.4322 11.4308 44.7215 11.794 44.7377 12.1778C 44.8635 15.0466 44.6174 17.8591 44.3401 20.7046C 43.9392 20.9411 43.5348 21.17 43.1325 21.3968C 42.8816 19.9398 42.6416 18.5047 42.7031 17.0134C 42.7612 15.5907 43.3637 14.2653 43.4239 12.8302C 43.4408 12.417 42.6314 12.3594 42.6145 12.7699C 42.5462 14.3777 41.9383 15.8587 41.8721 17.4699C 41.8119 18.9358 42.1425 20.3901 42.3934 21.8244C 42.3271 21.8642 42.2575 21.9012 42.1919 21.9416C 42.0993 21.9978 42.0452 22.0849 42.0073 22.1808C 41.5367 21.283 40.9897 20.4469 40.3601 19.6986C 40.6428 17.7879 40.657 16.0533 40.3811 14.1049C 41.2101 13.2688 42.1709 12.5623 43.0838 11.8276C 43.5896 11.4198 43.0824 10.1547 42.5253 10.6029C 41.6408 11.3143 40.7354 12.003 39.9051 12.7802C 38.8888 13.7307 38.0746 14.8759 37.2199 15.9704C 36.8251 16.4762 37.4985 17.6261 37.9834 17.0052C 38.5939 16.2212 39.1903 15.4221 39.8476 14.6779C 40.0234 16.1917 39.9963 17.5884 39.8003 19.0777C 37.7886 17.0066 35.0535 15.7696 31.5028 16.0369C 24.1271 16.594 15.8161 21.1789 15.4578 29.485C 15.3482 32.0159 15.783 34.6373 16.7148 36.9914C 16.6215 36.9749 16.5214 36.9928 16.4179 37.064C 14.9662 38.0591 13.4698 38.9699 12.2533 40.2638C 11.4128 41.1575 10.7225 42.2348 10.026 43.2738C 10.0023 43.2402 9.98745 43.2039 9.95162 43.1758C 9.93471 43.1621 9.91645 43.1504 9.89955 43.1367C 6.93991 38.5258 5.26839 33.0398 5.3617 27.464C 5.4327 23.1766 6.76545 19.4381 9.01849 16.1869C 9.32141 16.0074 9.62164 15.8306 9.91172 15.6586C 10.0125 15.5989 10.0882 15.5098 10.1511 15.4132C 10.1585 15.5311 10.193 15.6503 10.264 15.7579C 11.2932 17.3143 12.2222 18.9276 13.628 20.1742C 14.7478 21.1672 16.0582 21.9814 17.2632 22.8634C 17.8859 23.3191 18.1503 22.0252 17.654 21.6408C 17.9333 18.4753 18.1929 15.3351 18.1821 12.1634C 18.8454 12.5938 19.4621 13.0776 19.9963 13.6999C 19.9855 13.7403 19.976 13.7801 19.976 13.8315C 19.976 15.7908 19.642 17.3116 18.8718 19.101C 18.7149 19.4662 19.2484 20.0008 19.4513 19.5293C 19.8144 18.6843 20.2106 17.8564 20.3979 16.947C 20.5683 16.1205 20.5947 15.3104 20.5988 14.4825C 21.3412 15.4955 22.083 16.507 22.8254 17.5192C 23.3217 18.197 23.812 16.9929 23.4326 16.4768C 22.5915 15.3296 21.751 14.1824 20.9098 13.0358C 20.1437 11.9914 17.3761 10.2171 17.0556 10.0334C 16.3713 9.6414 16.1191 10.9483 16.6749 11.2663C 16.9393 11.4178 17.1989 11.5672 17.4559 11.7186C 17.5073 14.8807 17.2699 18.0079 16.994 21.1556C 16.6289 20.8883 16.2644 20.6217 15.8993 20.3537C 15.6424 18.4965 15.3807 16.6653 15.4591 14.7813C 15.5294 13.0906 16.1441 11.4925 16.2137 9.79285C 16.2158 9.73529 16.2306 9.60713 16.2577 9.57835C 16.3949 9.43032 16.5248 9.27543 16.6539 9.11918C 21.4 6.55126 27.0657 6.10237 32.4035 6.61363C 38.0902 7.15915 44.0636 9.12123 48.1389 13.3202C 48.6657 13.8616 49.1383 14.4448 49.5711 15.0575ZM 18.6155 46.3639C 18.0624 46.9985 17.4789 47.6057 16.8865 48.2061C 17.1286 45.105 17.2091 42.0888 16.9541 38.9548C 16.9366 38.7369 16.6823 38.6211 16.4646 38.6314C 16.6377 38.5176 16.8094 38.4038 16.9771 38.2887C 17.0698 38.225 17.1299 38.1338 17.1658 38.0297C 17.6249 38.9932 18.174 39.8972 18.8089 40.7168C 18.9766 42.6309 18.9029 44.4313 18.6155 46.3639ZM 14.1473 48.2958C 14.9966 45.4867 14.7958 42.8982 14.4651 39.9876C 15.0176 39.5751 15.6011 39.1961 16.1718 38.8246C 16.1623 38.8555 16.1522 38.8856 16.1556 38.9247C 16.4362 42.363 16.3131 45.6573 16.0082 49.0915C 15.8547 49.245 15.7025 49.3985 15.549 49.5527C 15.0662 49.1518 14.6017 48.7303 14.1473 48.2958ZM 12.5346 46.6209C 12.5691 46.5688 12.5935 46.4996 12.5887 46.3947C 12.5292 45.0405 12.392 43.7275 12.1749 42.4007C 12.3723 42.1306 12.563 41.8558 12.7666 41.5906C 13.0904 41.1691 13.4759 40.7943 13.8883 40.4447C 14.1804 43.014 14.3644 45.3291 13.6537 47.8223C 13.2676 47.4351 12.8977 47.0314 12.5346 46.6209ZM 16.7168 29.2808C 16.5599 21.4023 25.5342 17.3116 32.127 17.143C 39.8503 16.9463 42.8606 25.2757 42.9905 31.7747C 42.6504 39.6607 34.5396 43.7343 27.5803 43.9125C 19.857 44.1085 16.8473 35.779 16.7168 29.2808ZM 20.1518 4.75365C 22.5279 2.72646 27.1077 1.37774 30.2411 1.27836C 34.1717 1.15226 38.6359 4.50556 42.0039 7.6471C 38.7738 6.31071 35.2354 5.61716 31.7882 5.28684C 26.8555 4.81396 22.0018 5.66788 17.7703 7.63271C 18.4931 6.60198 19.2072 5.55891 20.1518 4.75365ZM 15.3955 9.85933C 15.2955 11.7166 14.7025 13.4737 14.6247 15.3371C 14.5638 16.7955 14.7816 18.2484 14.9946 19.6917C 14.8005 19.5492 14.6051 19.4059 14.4103 19.2634C 13.9147 18.9008 13.486 18.4567 13.0925 17.9756C 13.3961 15.9992 13.3981 14.2372 13.0675 12.1942C 13.0364 12.0003 12.9315 11.903 12.8179 11.8838C 12.9931 11.7234 13.1662 11.5603 13.3467 11.4034C 14.0019 10.8318 14.6862 10.3192 15.3955 9.85933ZM 12.4751 12.1949C 12.4697 12.2381 12.467 12.2847 12.4758 12.3361C 12.7557 14.0665 12.7557 15.6037 12.5414 17.2519C 12.0153 16.5049 11.546 15.7086 11.0599 14.9725C 10.8023 14.5833 10.4899 14.6559 10.3066 14.8972C 10.3059 14.7772 10.2816 14.671 10.2282 14.5922C 10.9165 13.7582 11.6657 12.9584 12.4751 12.1949ZM 4.73759 39.3338C 2.61303 37.65 2.34053 34.6654 1.79485 32.1276C 1.12746 29.0183 0.52363 25.3943 1.96728 22.4433C 3.00724 20.3174 5.00671 18.7192 7.07785 17.3794C 5.55509 20.0947 4.55569 23.2006 4.24736 26.6443C 3.7862 31.8 4.87418 36.7447 7.08326 41.0821C 6.29213 40.5133 5.50302 39.9397 4.73759 39.3338ZM 10.7515 44.3867C 11.0511 43.9598 11.3547 43.5363 11.6563 43.1107C 11.7935 44.0489 11.8977 44.9898 11.9504 45.9465C 11.5325 45.4421 11.1349 44.9192 10.7515 44.3867ZM 39.9862 56.689C 37.4566 58.538 32.7031 60.1671 29.6041 59.4338C 26.7932 58.7683 24.3685 56.9508 22.2304 55.0573C 22.0262 54.8763 21.8179 54.7002 21.6076 54.5255C 24.1947 55.6042 26.9576 56.3066 29.8225 56.5479C 34.4747 56.9399 39.1376 55.6508 43.215 53.3487C 42.2392 54.5577 41.2669 55.7529 39.9862 56.689ZM 29.1612 55.2279C 24.6342 54.8462 20.5021 53.1877 16.9934 50.663C 16.8676 50.5362 16.7452 50.4066 16.6228 50.2757C 18.2619 48.6358 19.8955 47.0287 21.164 45.0563C 21.5075 44.5231 20.8205 43.369 20.4006 44.0215C 20.0822 44.517 19.738 44.9857 19.3782 45.4415C 19.5182 44.1222 19.5601 42.8427 19.4878 41.5276C 21.6198 43.8597 24.5551 45.2927 28.2038 45.0179C 35.5795 44.4608 43.8911 39.8766 44.2488 31.5698C 44.192 28.7462 43.6362 25.798 42.5151 23.2355C 42.5902 23.2369 42.67 23.2184 42.7518 23.1677C 44.188 22.2905 45.7615 21.5058 47.0442 20.4031C 48.3695 19.2641 49.2796 17.5953 50.2689 16.1691C 50.2736 16.1616 50.2763 16.1541 50.2817 16.1465C 53.0047 20.7382 53.6356 26.7547 53.689 31.8734C 53.6565 36.574 53.0994 40.7737 51.056 44.4957C 51.0418 44.4717 51.0276 44.447 51.0093 44.4244C 49.8503 43.0202 48.734 41.5755 47.4377 40.2981C 46.3065 39.1831 45.0379 38.1941 43.8377 37.1566C 43.2474 36.6467 42.8093 37.5863 43.1277 38.0797C 43.3644 41.494 43.2643 44.7479 42.8836 48.1389C 42.2933 47.6516 41.7247 47.139 41.2236 46.5674C 41.2696 46.5311 41.3075 46.4845 41.3169 46.4132C 41.5773 44.41 41.6523 42.6563 41.2865 40.6613C 41.2162 40.2748 40.4102 40.2035 40.4886 40.6305C 40.8132 42.4048 40.7861 43.9954 40.5833 45.7526C 39.8638 44.7363 39.1423 43.7192 38.4229 42.7029C 37.9083 41.9765 37.2152 42.9064 37.6277 43.4883C 38.4168 44.6026 39.1815 45.7409 40.0004 46.834C 41.1222 48.3301 42.5942 49.4259 44.0237 50.5965C 44.6187 51.0831 44.8899 49.7604 44.4044 49.3622C 44.0994 49.1128 43.7877 48.866 43.4753 48.6166C 43.8641 45.255 43.9858 42.0416 43.785 38.6725C 44.4666 39.2537 45.1428 39.841 45.8149 40.4338C 45.6905 41.7201 45.3686 42.9469 45.1421 44.2284C 44.8648 45.7937 45.0041 47.3378 45.1306 48.9078C 45.1644 49.3197 45.9724 49.3684 45.94 48.9681C 45.825 47.5536 45.7324 46.1981 45.8825 44.7815C 46.015 43.5273 46.3653 42.3314 46.556 41.0951C 46.6459 41.1787 46.7412 41.2562 46.8305 41.3405C 47.1963 41.6866 47.5439 42.0532 47.8826 42.4288C 48.0145 44.6417 47.7636 46.7888 47.504 48.9914C 47.5019 49.0106 47.4296 49.1203 47.3877 49.1587C 42.509 53.6962 35.6925 55.7789 29.1612 55.2279ZM 48.2863 48.2698C 48.4797 46.6038 48.6447 44.9631 48.6332 43.2978C 49.233 44.0153 49.8104 44.7527 50.4007 45.4675C 50.4163 45.4867 50.4325 45.4997 50.4481 45.5155C 49.8402 46.466 49.1275 47.3844 48.2863 48.2698ZM 57.8779 40.429C 56.6439 43.025 54.355 43.4663 52.3387 44.5039C 54.3091 40.6531 54.827 36.2314 54.8588 31.6253C 54.8155 27.4119 54.401 22.7428 52.8674 18.6247C 55.1922 21.7333 56.9124 25.3306 57.7603 29.0786C 58.5724 32.6752 59.5211 36.9722 57.8779 40.429Z"/>
<path id="path1_fill" d="M 3.53014 0.0598026C 2.45299 0.216742 1.31024 0.408634 0.267573 0.72594C -0.221306 0.875341 0.0221196 1.44211 0.497474 1.2975C 1.35622 1.03639 2.27245 0.954154 3.14946 0.770486C 4.43758 0.499782 5.40993 0.769115 6.62097 1.17825C 6.99489 1.30504 7.47093 0.71703 6.98949 0.554608C 5.78047 0.146154 4.81151 -0.126606 3.53014 0.0598026Z"/>
</defs>
</svg>
